<svg width="200" height="36" viewBox="0 0 200 36" fill="none" xmlns="http://www.w3.org/2000/svg">
<path d="M189.159 17.184V4.77603H184.239V0.384033H199.743V4.77603H194.823V17.184H189.159Z" fill="white"/>
<path d="M172.321 17.184V0.384033H177.985V17.184H172.321Z" fill="white"/>
<path d="M156.009 17.568C154.633 17.568 153.361 17.352 152.193 16.92C151.041 16.488 150.041 15.88 149.193 15.096C148.345 14.296 147.681 13.36 147.201 12.288C146.737 11.216 146.505 10.048 146.505 8.784C146.505 7.504 146.737 6.336 147.201 5.28C147.681 4.208 148.345 3.28 149.193 2.496C150.041 1.696 151.041 1.08 152.193 0.648C153.361 0.216 154.625 0 155.985 0C157.361 0 158.625 0.216 159.777 0.648C160.929 1.08 161.929 1.696 162.777 2.496C163.625 3.28 164.281 4.208 164.745 5.28C165.225 6.336 165.465 7.504 165.465 8.784C165.465 10.048 165.225 11.216 164.745 12.288C164.281 13.36 163.625 14.296 162.777 15.096C161.929 15.88 160.929 16.488 159.777 16.92C158.625 17.352 157.369 17.568 156.009 17.568ZM155.985 12.984C156.513 12.984 157.001 12.888 157.449 12.696C157.913 12.504 158.313 12.232 158.649 11.88C159.001 11.512 159.273 11.072 159.465 10.56C159.657 10.032 159.753 9.44 159.753 8.784C159.753 8.128 159.657 7.544 159.465 7.032C159.273 6.504 159.001 6.064 158.649 5.712C158.313 5.344 157.913 5.064 157.449 4.872C157.001 4.68 156.513 4.584 155.985 4.584C155.457 4.584 154.961 4.68 154.497 4.872C154.049 5.064 153.649 5.344 153.297 5.712C152.961 6.064 152.697 6.504 152.505 7.032C152.313 7.544 152.217 8.128 152.217 8.784C152.217 9.44 152.313 10.032 152.505 10.56C152.697 11.072 152.961 11.512 153.297 11.88C153.649 12.232 154.049 12.504 154.497 12.696C154.961 12.888 155.457 12.984 155.985 12.984Z" fill="white"/>
<path d="M122.549 17.184V0.384033H130.829C132.701 0.384033 134.349 0.728034 135.773 1.41603C137.197 2.08803 138.309 3.04803 139.109 4.29603C139.909 5.54403 140.309 7.03203 140.309 8.76003C140.309 10.504 139.909 12.008 139.109 13.272C138.309 14.52 137.197 15.488 135.773 16.176C134.349 16.848 132.701 17.184 130.829 17.184H122.549ZM128.213 12.768H130.589C131.389 12.768 132.085 12.616 132.677 12.312C133.285 12.008 133.757 11.56 134.093 10.968C134.429 10.36 134.597 9.62403 134.597 8.76003C134.597 7.91203 134.429 7.19203 134.093 6.60003C133.757 6.00803 133.285 5.56003 132.677 5.25603C132.085 4.95203 131.389 4.80003 130.589 4.80003H128.213V12.768Z" fill="white"/>
<path d="M96.0202 17.568C94.6602 17.568 93.4042 17.36 92.2522 16.944C91.1162 16.512 90.1242 15.904 89.2762 15.12C88.4442 14.336 87.7962 13.408 87.3322 12.336C86.8682 11.264 86.6362 10.08 86.6362 8.784C86.6362 7.488 86.8682 6.304 87.3322 5.232C87.7962 4.16 88.4522 3.232 89.3002 2.448C90.1482 1.664 91.1482 1.064 92.3002 0.648C93.4682 0.216 94.7482 0 96.1402 0C97.8042 0 99.2842 0.28 100.58 0.839999C101.892 1.4 102.972 2.2 103.82 3.24L100.196 6.432C99.6682 5.824 99.0922 5.368 98.4682 5.064C97.8602 4.744 97.1802 4.584 96.4282 4.584C95.8042 4.584 95.2362 4.68 94.7242 4.872C94.2282 5.064 93.8042 5.344 93.4522 5.712C93.1002 6.08 92.8282 6.52 92.6362 7.032C92.4442 7.544 92.3482 8.128 92.3482 8.784C92.3482 9.408 92.4442 9.984 92.6362 10.512C92.8282 11.024 93.1002 11.464 93.4522 11.832C93.8042 12.2 94.2202 12.488 94.7002 12.696C95.1962 12.888 95.7482 12.984 96.3562 12.984C96.9962 12.984 97.6202 12.88 98.2282 12.672C98.8362 12.448 99.4842 12.072 100.172 11.544L103.34 15.432C102.316 16.12 101.148 16.648 99.8362 17.016C98.5242 17.384 97.2522 17.568 96.0202 17.568ZM98.4202 14.712V8.328H103.34V15.432L98.4202 14.712Z" fill="white"/>
<path d="M63.2192 17.184V0.384033H67.8752L76.4192 10.608H74.2592V0.384033H79.7792V17.184H75.1232L66.5792 6.96003H68.7392V17.184H63.2192Z" fill="white"/>
<path d="M50.0285 17.184V0.384033H55.6925V17.184H50.0285Z" fill="white"/>
<path d="M33.7168 17.568C32.3408 17.568 31.0688 17.352 29.9008 16.92C28.7488 16.488 27.7488 15.88 26.9008 15.096C26.0528 14.296 25.3888 13.36 24.9088 12.288C24.4448 11.216 24.2128 10.048 24.2128 8.784C24.2128 7.504 24.4448 6.336 24.9088 5.28C25.3888 4.208 26.0528 3.28 26.9008 2.496C27.7488 1.696 28.7488 1.08 29.9008 0.648C31.0688 0.216 32.3328 0 33.6928 0C35.0688 0 36.3328 0.216 37.4848 0.648C38.6368 1.08 39.6368 1.696 40.4848 2.496C41.3328 3.28 41.9888 4.208 42.4528 5.28C42.9328 6.336 43.1728 7.504 43.1728 8.784C43.1728 10.048 42.9328 11.216 42.4528 12.288C41.9888 13.36 41.3328 14.296 40.4848 15.096C39.6368 15.88 38.6368 16.488 37.4848 16.92C36.3328 17.352 35.0768 17.568 33.7168 17.568ZM33.6928 12.984C34.2208 12.984 34.7088 12.888 35.1568 12.696C35.6208 12.504 36.0208 12.232 36.3568 11.88C36.7088 11.512 36.9808 11.072 37.1728 10.56C37.3648 10.032 37.4608 9.44 37.4608 8.784C37.4608 8.128 37.3648 7.544 37.1728 7.032C36.9808 6.504 36.7088 6.064 36.3568 5.712C36.0208 5.344 35.6208 5.064 35.1568 4.872C34.7088 4.68 34.2208 4.584 33.6928 4.584C33.1648 4.584 32.6688 4.68 32.2048 4.872C31.7568 5.064 31.3568 5.344 31.0048 5.712C30.6688 6.064 30.4048 6.504 30.2128 7.032C30.0208 7.544 29.9248 8.128 29.9248 8.784C29.9248 9.44 30.0208 10.032 30.2128 10.56C30.4048 11.072 30.6688 11.512 31.0048 11.88C31.3568 12.232 31.7568 12.504 32.2048 12.696C32.6688 12.888 33.1648 12.984 33.6928 12.984Z" fill="white"/>
<path d="M0.256653 17.184V0.384033H8.53665C10.4087 0.384033 12.0567 0.728034 13.4807 1.41603C14.9047 2.08803 16.0167 3.04803 16.8167 4.29603C17.6167 5.54403 18.0167 7.03203 18.0167 8.76003C18.0167 10.504 17.6167 12.008 16.8167 13.272C16.0167 14.52 14.9047 15.488 13.4807 16.176C12.0567 16.848 10.4087 17.184 8.53665 17.184H0.256653ZM5.92065 12.768H8.29665C9.09665 12.768 9.79265 12.616 10.3847 12.312C10.9927 12.008 11.4647 11.56 11.8007 10.968C12.1367 10.36 12.3047 9.62403 12.3047 8.76003C12.3047 7.91203 12.1367 7.19203 11.8007 6.60003C11.4647 6.00803 10.9927 5.56003 10.3847 5.25603C9.79265 4.95203 9.09665 4.80003 8.29665 4.80003H5.92065V12.768Z" fill="white"/>
<path d="M164.591 32.0478H167.471V32.7278H164.591V32.0478ZM164.663 34.5358H167.927V35.2318H163.863V29.6318H167.815V30.3278H164.663V34.5358Z" fill="white"/>
<path d="M155.113 35.2318V29.6318H155.913V34.5358H158.945V35.2318H155.113Z" fill="white"/>
<path d="M145.058 35.2318V29.6318H147.57C148.215 29.6318 148.711 29.7625 149.058 30.0238C149.405 30.2798 149.578 30.6318 149.578 31.0798C149.578 31.3838 149.509 31.6398 149.37 31.8478C149.237 32.0558 149.055 32.2158 148.826 32.3278C148.597 32.4398 148.349 32.4958 148.082 32.4958L148.226 32.2558C148.546 32.2558 148.829 32.3118 149.074 32.4238C149.319 32.5358 149.514 32.7012 149.658 32.9198C149.802 33.1332 149.874 33.3998 149.874 33.7198C149.874 34.1998 149.693 34.5732 149.33 34.8398C148.973 35.1012 148.439 35.2318 147.73 35.2318H145.058ZM145.858 34.5838H147.698C148.141 34.5838 148.479 34.5092 148.714 34.3598C148.949 34.2105 149.066 33.9758 149.066 33.6558C149.066 33.3305 148.949 33.0932 148.714 32.9438C148.479 32.7945 148.141 32.7198 147.698 32.7198H145.786V32.0718H147.498C147.903 32.0718 148.218 31.9972 148.442 31.8478C148.666 31.6985 148.778 31.4745 148.778 31.1758C148.778 30.8772 148.666 30.6532 148.442 30.5038C148.218 30.3545 147.903 30.2798 147.498 30.2798H145.858V34.5838Z" fill="white"/>
<path d="M138.581 35.2318V29.6318H139.381V35.2318H138.581Z" fill="white"/>
<path d="M131.245 35.2959C130.818 35.2959 130.41 35.2319 130.021 35.1039C129.631 34.9705 129.325 34.7999 129.101 34.5919L129.397 33.9679C129.61 34.1545 129.882 34.3092 130.213 34.4319C130.543 34.5545 130.887 34.6159 131.245 34.6159C131.57 34.6159 131.834 34.5785 132.037 34.5039C132.239 34.4292 132.389 34.3279 132.485 34.1999C132.581 34.0665 132.629 33.9172 132.629 33.7519C132.629 33.5599 132.565 33.4052 132.437 33.2879C132.314 33.1705 132.151 33.0772 131.949 33.0079C131.751 32.9332 131.533 32.8692 131.293 32.8159C131.053 32.7625 130.81 32.7012 130.565 32.6319C130.325 32.5572 130.103 32.4639 129.901 32.3519C129.703 32.2399 129.543 32.0905 129.421 31.9039C129.298 31.7119 129.237 31.4665 129.237 31.1679C129.237 30.8799 129.311 30.6159 129.461 30.3759C129.615 30.1305 129.85 29.9359 130.165 29.7919C130.485 29.6425 130.89 29.5679 131.381 29.5679C131.706 29.5679 132.029 29.6105 132.349 29.6959C132.669 29.7812 132.946 29.9039 133.181 30.0639L132.917 30.7039C132.677 30.5439 132.423 30.4292 132.157 30.3599C131.89 30.2852 131.631 30.2479 131.381 30.2479C131.066 30.2479 130.807 30.2879 130.605 30.3679C130.402 30.4479 130.253 30.5545 130.157 30.6879C130.066 30.8212 130.021 30.9705 130.021 31.1359C130.021 31.3332 130.082 31.4905 130.205 31.6079C130.333 31.7252 130.495 31.8185 130.693 31.8879C130.895 31.9572 131.117 32.0212 131.357 32.0799C131.597 32.1332 131.837 32.1945 132.077 32.2639C132.322 32.3332 132.543 32.4239 132.741 32.5359C132.943 32.6479 133.106 32.7972 133.229 32.9839C133.351 33.1705 133.413 33.4105 133.413 33.7039C133.413 33.9865 133.335 34.2505 133.181 34.4959C133.026 34.7359 132.786 34.9305 132.461 35.0799C132.141 35.2239 131.735 35.2959 131.245 35.2959Z" fill="white"/>
<path d="M122.276 35.2959C121.849 35.2959 121.441 35.2319 121.052 35.1039C120.663 34.9705 120.356 34.7999 120.132 34.5919L120.428 33.9679C120.641 34.1545 120.913 34.3092 121.244 34.4319C121.575 34.5545 121.918 34.6159 122.276 34.6159C122.601 34.6159 122.865 34.5785 123.068 34.5039C123.27 34.4292 123.42 34.3279 123.516 34.1999C123.612 34.0665 123.66 33.9172 123.66 33.7519C123.66 33.5599 123.596 33.4052 123.468 33.2879C123.345 33.1705 123.183 33.0772 122.98 33.0079C122.783 32.9332 122.564 32.8692 122.324 32.8159C122.084 32.7625 121.841 32.7012 121.596 32.6319C121.356 32.5572 121.134 32.4639 120.932 32.3519C120.734 32.2399 120.575 32.0905 120.452 31.9039C120.329 31.7119 120.268 31.4665 120.268 31.1679C120.268 30.8799 120.343 30.6159 120.492 30.3759C120.647 30.1305 120.881 29.9359 121.196 29.7919C121.516 29.6425 121.921 29.5679 122.412 29.5679C122.737 29.5679 123.06 29.6105 123.38 29.6959C123.7 29.7812 123.977 29.9039 124.212 30.0639L123.948 30.7039C123.708 30.5439 123.455 30.4292 123.188 30.3599C122.921 30.2852 122.663 30.2479 122.412 30.2479C122.097 30.2479 121.839 30.2879 121.636 30.3679C121.433 30.4479 121.284 30.5545 121.188 30.6879C121.097 30.8212 121.052 30.9705 121.052 31.1359C121.052 31.3332 121.113 31.4905 121.236 31.6079C121.364 31.7252 121.526 31.8185 121.724 31.8879C121.926 31.9572 122.148 32.0212 122.388 32.0799C122.628 32.1332 122.868 32.1945 123.108 32.2639C123.353 32.3332 123.575 32.4239 123.772 32.5359C123.975 32.6479 124.137 32.7972 124.26 32.9839C124.383 33.1705 124.444 33.4105 124.444 33.7039C124.444 33.9865 124.366 34.2505 124.212 34.4959C124.057 34.7359 123.817 34.9305 123.492 35.0799C123.172 35.2239 122.766 35.2959 122.276 35.2959Z" fill="white"/>
<path d="M112.453 35.2959C112.026 35.2959 111.629 35.2239 111.261 35.0799C110.898 34.9359 110.584 34.7359 110.317 34.4799C110.05 34.2185 109.842 33.9145 109.693 33.5679C109.544 33.2212 109.469 32.8425 109.469 32.4319C109.469 32.0212 109.544 31.6425 109.693 31.2959C109.842 30.9492 110.05 30.6479 110.317 30.3919C110.584 30.1305 110.898 29.9279 111.261 29.7839C111.624 29.6399 112.021 29.5679 112.453 29.5679C112.88 29.5679 113.272 29.6399 113.629 29.7839C113.992 29.9225 114.306 30.1225 114.573 30.3839C114.845 30.6399 115.053 30.9412 115.197 31.2879C115.346 31.6345 115.421 32.0159 115.421 32.4319C115.421 32.8479 115.346 33.2292 115.197 33.5759C115.053 33.9225 114.845 34.2265 114.573 34.4879C114.306 34.7439 113.992 34.9439 113.629 35.0879C113.272 35.2265 112.88 35.2959 112.453 35.2959ZM112.453 34.5839C112.762 34.5839 113.048 34.5305 113.309 34.4239C113.576 34.3172 113.805 34.1679 113.997 33.9759C114.194 33.7785 114.346 33.5492 114.453 33.2879C114.565 33.0265 114.621 32.7412 114.621 32.4319C114.621 32.1225 114.565 31.8372 114.453 31.5759C114.346 31.3145 114.194 31.0879 113.997 30.8959C113.805 30.6985 113.576 30.5465 113.309 30.4399C113.048 30.3332 112.762 30.2799 112.453 30.2799C112.138 30.2799 111.848 30.3332 111.581 30.4399C111.32 30.5465 111.09 30.6985 110.893 30.8959C110.696 31.0879 110.541 31.3145 110.429 31.5759C110.322 31.8372 110.269 32.1225 110.269 32.4319C110.269 32.7412 110.322 33.0265 110.429 33.2879C110.541 33.5492 110.696 33.7785 110.893 33.9759C111.09 34.1679 111.32 34.3172 111.581 34.4239C111.848 34.5305 112.138 34.5839 112.453 34.5839Z" fill="white"/>
<path d="M100.152 35.2318V29.6318H102.336C102.826 29.6318 103.245 29.7092 103.592 29.8638C103.938 30.0185 104.205 30.2425 104.392 30.5358C104.578 30.8292 104.672 31.1785 104.672 31.5838C104.672 31.9892 104.578 32.3385 104.392 32.6318C104.205 32.9198 103.938 33.1438 103.592 33.3038C103.245 33.4585 102.826 33.5358 102.336 33.5358H100.592L100.952 33.1598V35.2318H100.152ZM100.952 33.2398L100.592 32.8398H102.312C102.824 32.8398 103.21 32.7305 103.472 32.5118C103.738 32.2932 103.872 31.9838 103.872 31.5838C103.872 31.1838 103.738 30.8745 103.472 30.6558C103.21 30.4372 102.824 30.3278 102.312 30.3278H100.592L100.952 29.9278V33.2398Z" fill="white"/>
<path d="M86.4199 35.2318V30.3278H84.4999V29.6318H89.1319V30.3278H87.2119V35.2318H86.4199Z" fill="white"/>
<path d="M78.8313 35.2318V29.6318H79.6313V35.2318H78.8313Z" fill="white"/>
<path d="M64.0515 32.0478H66.9315V32.7278H64.0515V32.0478ZM64.1235 34.5358H67.3875V35.2318H63.3235V29.6318H67.2755V30.3278H64.1235V34.5358Z" fill="white"/>
<path d="M54.2775 33.8798L54.2375 32.9038L57.4135 29.6318H58.3255L55.8695 32.2238L55.4215 32.7198L54.2775 33.8798ZM53.5735 35.2318V29.6318H54.3735V35.2318H53.5735ZM57.5415 35.2318L55.2455 32.5598L55.7815 31.9678L58.4775 35.2318H57.5415Z" fill="white"/>
<path d="M42.8661 35.2318L45.4021 29.6318H46.1941L48.7381 35.2318H47.8981L45.6341 30.0798H45.9541L43.6901 35.2318H42.8661ZM43.9461 33.8318L44.1621 33.1918H47.3141L47.5461 33.8318H43.9461Z" fill="white"/>
<path d="M32.0735 35.2318V29.6318H32.7295L35.2415 33.8638H34.8895L37.3695 29.6318H38.0255L38.0335 35.2318H37.2655L37.2575 30.8398H37.4415L35.2335 34.5518H34.8655L32.6415 30.8398H32.8415V35.2318H32.0735Z" fill="white"/>
</svg>
